G04 ================== begin FILE IDENTIFICATION RECORD ==================*
G04 Layout Name:  PCB.brd*
G04 Film Name:    TOP*
G04 File Format:  Gerber RS274X*
G04 File Origin:  Cadence Allegro 17.2-S025*
G04 Origin Date:  Sun Dec 15 16:06:17 2024*
G04 *
G04 Layer:  ETCH/TOP*
G04 Layer:  PIN/TOP*
G04 Layer:  VIA CLASS/TOP*
G04 *
G04 Offset:    (0.0000 0.0000)*
G04 Mirror:    No*
G04 Mode:      Positive*
G04 Rotation:  0*
G04 FullContactRelief:  No*
G04 UndefLineWidth:     0.1000*
G04 ================== end FILE IDENTIFICATION RECORD ====================*
%FSLAX25Y25*MOMM*%
%IR0*IPPOS*OFA0.00000B0.00000*MIA0B0*SFA1.00000B1.00000*%
%ADD12R,1.05X.6*%
%ADD11R,.6X1.05*%
%ADD15C,.7*%
%ADD16R,1.3X2.*%
%ADD17C,1.*%
%ADD18R,1.3X1.3*%
%ADD10R,1.27X1.27*%
%ADD19R,1.2192X1.9304*%
%ADD14R,3.048X1.9304*%
%ADD13R,1.9304X1.2192*%
%ADD20R,1.5999X3.*%
%ADD21R,5.8001X6.1999*%
%ADD22C,.6604*%
%ADD23C,2.0004*%
G75*
%LPD*%
G75*
G36*
G01X2489430Y3532260D02*
X2489150Y3531460D01*
G03X2485410Y3509120I64864J-22342D01*
G01Y3071840D01*
X2801100D01*
G02X2810270Y3057320I-4J-10158D01*
G03X2890030Y2958280I63727J-30316D01*
G01X2890600Y2958410D01*
X2973410D01*
Y2878720D01*
G03X2953930Y2847000I16085J-31720D01*
G01Y2787000D01*
G03X2989500Y2751430I35570J0D01*
G01X3021100D01*
X3022540Y2751220D01*
X3022880Y2751120D01*
G03X3061450Y2751220I19114J65879D01*
G01X3062160Y2751430D01*
X3094500D01*
G03X3130070Y2787000I0J35570D01*
G01Y2847000D01*
G03X3110590Y2878720I-35565J0D01*
G01Y3071840D01*
X3216410D01*
Y2985570D01*
X3205000D01*
G03X3169440Y2950000I10J-35570D01*
G01Y2650000D01*
G03X3205000Y2614430I35570J0D01*
G01X3354050D01*
Y2569920D01*
X3350240Y2568940D01*
G03X3324700Y2543400I8900J-34440D01*
G01X3323720Y2539590D01*
X3244830D01*
Y2509590D01*
X3110590D01*
Y2565280D01*
G03X3130070Y2597000I-16085J31720D01*
G01Y2657000D01*
G03X3094500Y2692570I-35570J0D01*
G01X3062900D01*
X3061460Y2692780D01*
X3061120Y2692880D01*
G03X3022550Y2692780I-19114J-65879D01*
G01X3021840Y2692570D01*
X2989500D01*
G03X2953930Y2657000I0J-35570D01*
G01Y2597000D01*
G03X2973410Y2565280I35565J0D01*
G01Y2372410D01*
X3352910D01*
X3353650Y2372350D01*
X3353830Y2372330D01*
G03X3359110Y2371930I5319J35169D01*
G01X3486140D01*
G03X3521710Y2407500I0J35570D01*
G01Y2534500D01*
G03X3502160Y2566260I-35573J0D01*
G01Y2731410D01*
X3626440D01*
Y2650000D01*
G03X3662000Y2614430I35570J0D01*
G01X3822000D01*
G03X3857560Y2650000I-10J35570D01*
G01Y2950000D01*
G03X3822000Y2985570I-35570J0D01*
G01X3662000D01*
G03X3626440Y2950000I10J-35570D01*
G01Y2868590D01*
X3400560D01*
Y2950000D01*
G03X3365000Y2985570I-35570J0D01*
G01X3353590D01*
Y3173440D01*
X3803020D01*
G03X3838580Y3209000I-10J35570D01*
G01Y3829000D01*
G03X3803020Y3864560I-35570J-10D01*
G01X3222980D01*
G03X3187420Y3829000I10J-35570D01*
G01Y3808590D01*
X2513050D01*
G03X2490000Y3817070I-23050J-27087D01*
G01X2430000D01*
G03X2406950Y3808590I0J-35567D01*
G01X1661720D01*
G03X1630000Y3828070I-31720J-16085D01*
G01X1570000D01*
G03X1540220Y3811950I0J-35568D01*
G01X1336920D01*
X1335940Y3815760D01*
G03X1301500Y3842430I-34440J-8902D01*
G01X1174500D01*
G03X1140060Y3815760I0J-35572D01*
G01X1139080Y3811950D01*
X1027920D01*
X1026940Y3815760D01*
G03X992500Y3842430I-34440J-8902D01*
G01X865500D01*
G03X831060Y3815760I0J-35572D01*
G01X830080Y3811950D01*
X499970D01*
Y3837960D01*
G03X464400Y3873530I-35570J0D01*
G01X159600D01*
G03X146210Y3870910I7J-35562D01*
G01X142390Y3869360D01*
X136870Y3877560D01*
G02X198590Y3899990I63123J-77562D01*
G01X3801410D01*
G02X3899990Y3801410I-1410J-99990D01*
G01Y198590D01*
G02X3801410Y100010I-99990J1410D01*
G01X198590D01*
G02X100010Y198590I1410J99990D01*
G01Y3801410D01*
G02X118670Y3858180I99989J-1414D01*
G01X127190Y3853190D01*
X125880Y3849280D01*
G03X124030Y3837960I33708J-11320D01*
G01Y3644920D01*
G03X159600Y3609350I35570J0D01*
G01X464400D01*
G03X499970Y3644920I0J35570D01*
G01Y3672850D01*
X538530D01*
X540450Y3674770D01*
X591410D01*
Y3434170D01*
X591300Y3433150D01*
X591230Y3432840D01*
Y3432830D01*
G03X728960Y3431950I68767J-15826D01*
G01X728840Y3432480D01*
X728720Y3433030D01*
X728590Y3433600D01*
Y3674770D01*
X830080D01*
X831060Y3670960D01*
G03X865500Y3644290I34440J8902D01*
G01X992500D01*
G03X1026940Y3670960I0J35572D01*
G01X1027920Y3674770D01*
X1139080D01*
X1140060Y3670960D01*
G03X1174500Y3644290I34440J8902D01*
G01X1301500D01*
G03X1335940Y3670960I0J35572D01*
G01X1336920Y3674770D01*
X1455690D01*
Y3671410D01*
X1538280D01*
G03X1570000Y3651930I31720J16085D01*
G01X1630000D01*
G03X1661720Y3671410I0J35565D01*
G01X2394580D01*
X2395560Y3667600D01*
G03X2430000Y3640930I34440J8902D01*
G01X2490000D01*
G03X2524440Y3667600I0J35572D01*
G01X2525420Y3671410D01*
X3108680D01*
Y3578280D01*
G02X3092200Y3570330I-10159J3D01*
G03X3120960Y3450410I-62201J-78326D01*
G01X3187420D01*
Y3209020D01*
X2622590D01*
Y3497320D01*
X2622660Y3497740D01*
G03X2620780Y3528470I-67659J11283D01*
G01X2620570Y3529180D01*
Y3561500D01*
G03X2585000Y3597070I-35570J0D01*
G01X2525000D01*
G03X2489430Y3561500I0J-35570D01*
G01Y3532260D01*
G37*
%LPC*%
G75*
G36*
G01X1922590Y1534580D02*
Y1390610D01*
X1922720Y1390040D01*
G02X1785280I-68720J-16040D01*
G01X1785410Y1390610D01*
Y1721590D01*
X1850690D01*
Y1735590D01*
X1929430D01*
Y1767000D01*
G02X1965000Y1802570I35570J0D01*
G01X2095000D01*
G02X2130570Y1767000I0J-35570D01*
G01Y1567000D01*
G02X2095000Y1531430I-35570J0D01*
G01X1965000D01*
G02X1939910Y1541780I-6J35572D01*
G03X1922590Y1534580I-7162J-7204D01*
G37*
G36*
G01X3385860Y686930D02*
X3258860D01*
G02X3223290Y722500I0J35570D01*
G01Y849500D01*
G02X3249960Y883940I35572J0D01*
G01X3253770Y884920D01*
Y1164500D01*
G03X3238680Y1173380I-10159J-2D01*
G02X3232500Y1171780I-6176J11121D01*
G01X3105500D01*
G02X3092780Y1184500I0J12720D01*
G01Y1311500D01*
G02X3105500Y1324220I12720J0D01*
G01X3232500D01*
G02X3245220Y1311500I0J-12720D01*
G01Y1244590D01*
X3372080D01*
X3373060Y1248400D01*
G02X3407500Y1275070I34440J-8902D01*
G01X3534500D01*
G02X3570070Y1239500I0J-35570D01*
G01Y1112500D01*
G02X3534500Y1076930I-35570J0D01*
G01X3407500D01*
G02X3402530Y1077280I8J35569D01*
G03X3390950Y1067220I-1420J-10060D01*
G01Y884920D01*
X3394760Y883940D01*
G02X3421430Y849500I-8902J-34440D01*
G01Y722500D01*
G02X3385860Y686930I-35570J0D01*
G37*
G36*
G01X2428300Y183600D02*
G02X2393860Y156930I-34440J8902D01*
G01X2266860D01*
G02X2231290Y192500I0J35570D01*
G01Y319500D01*
G02X2266860Y355070I35570J0D01*
G01X2370990D01*
Y364590D01*
X2548080D01*
X2549060Y368400D01*
G02X2583500Y395070I34440J-8902D01*
G01X2710500D01*
G02X2746070Y359500I0J-35570D01*
G01Y232500D01*
G02X2710500Y196930I-35570J0D01*
G01X2583500D01*
G02X2549060Y223600I0J35572D01*
G01X2548080Y227410D01*
X2508170D01*
Y187410D01*
X2429280D01*
X2428300Y183600D01*
G37*
G36*
G01X2957400Y220660D02*
G02X2923860Y196930I-33540J11838D01*
G01X2796860D01*
G02X2761290Y232500I0J35570D01*
G01Y359500D01*
G02X2796860Y395070I35570J0D01*
G01X2923860D01*
G02X2955230Y376270I0J-35572D01*
G01X2956660Y373590D01*
X3017080D01*
X3018060Y377400D01*
G02X3052500Y404070I34440J-8902D01*
G01X3179500D01*
G02X3215070Y368500I0J-35570D01*
G01Y241500D01*
G02X3179500Y205930I-35570J0D01*
G01X3052500D01*
G02X3021500Y224050I0J35578D01*
G01X2958600D01*
X2957400Y220660D01*
G37*
G36*
G01X3428430Y241500D02*
G02X3392860Y205930I-35570J0D01*
G01X3265860D01*
G02X3230290Y241500I0J35570D01*
G01Y368500D01*
G02X3256960Y402940I35572J0D01*
G01X3260770Y403920D01*
Y438830D01*
X3257420Y440050D01*
G02X3233930Y473500I12072J33450D01*
G01Y600500D01*
G02X3269500Y636070I35570J0D01*
G01X3396500D01*
G02X3432070Y600500I0J-35570D01*
G01Y473500D01*
G02X3405400Y439060I-35572J0D01*
G01X3401590Y438080D01*
Y403170D01*
X3404940Y401950D01*
G02X3428430Y368500I-12072J-33450D01*
G01Y241500D01*
G37*
G36*
G01X3218710Y473500D02*
G02X3183140Y437930I-35570J0D01*
G01X3056140D01*
G02X3020570Y473500I0J35570D01*
G01Y600500D01*
G02X3040410Y632400I35565J0D01*
G01Y687080D01*
X3036600Y688060D01*
G02X3009930Y722500I8902J34440D01*
G01Y849500D01*
G02X3045500Y885070I35570J0D01*
G01X3172500D01*
G02X3208070Y849500I0J-35570D01*
G01Y722500D01*
G02X3188230Y690600I-35565J0D01*
G01Y635920D01*
X3192040Y634940D01*
G02X3218710Y600500I-8902J-34440D01*
G01Y473500D01*
G37*
G36*
G01X336350Y685130D02*
X339410Y686460D01*
Y807160D01*
X339350Y807550D01*
G02X338930Y813000I35150J5450D01*
G01Y873000D01*
G02X374500Y908570I35570J0D01*
G01X387860D01*
X388560Y908780D01*
G02X408000Y911590I19432J-65781D01*
G01X427000D01*
G02X446440Y908780I8J-68591D01*
G01X447140Y908570D01*
X479500D01*
G02X515070Y873000I0J-35570D01*
G01Y813000D01*
G02X481400Y777480I-35571J0D01*
G03X476590Y772410I270J-5072D01*
G01Y766810D01*
X482590D01*
Y687920D01*
X486400Y686940D01*
G02X513070Y652500I-8902J-34440D01*
G01Y525500D01*
G02X477500Y489930I-35570J0D01*
G01X350500D01*
G02X314930Y525500I0J35570D01*
G01Y652500D01*
G02X336350Y685130I35563J0D01*
G37*
G36*
G01X3743460Y1949900D02*
X3742950Y1948840D01*
Y1890920D01*
X3746760Y1889940D01*
G02X3773430Y1855500I-8902J-34440D01*
G01Y1728500D01*
G02X3749040Y1694730I-35574J0D01*
G01X3745560Y1693580D01*
Y1684830D01*
X3750590D01*
Y1605460D01*
X3754080Y1604310D01*
G02X3778530Y1570520I-11124J-33790D01*
G01Y1377480D01*
G02X3756150Y1344440I-35579J0D01*
G01X3752950Y1343170D01*
Y1274920D01*
X3756760Y1273940D01*
G02X3783430Y1239500I-8902J-34440D01*
G01Y1112500D01*
G02X3756760Y1078060I-35572J0D01*
G01X3752950Y1077080D01*
Y1003530D01*
X3827400D01*
G02X3862970Y967960I0J-35570D01*
G01Y774920D01*
G02X3827400Y739350I-35570J0D01*
G01X3522600D01*
G02X3487030Y774920I0J35570D01*
G01Y967960D01*
G02X3522600Y1003530I35570J0D01*
G01X3606410D01*
Y1079860D01*
X3603770Y1081300D01*
G02X3585290Y1112500I17098J31200D01*
G01Y1239500D01*
G02X3609900Y1273340I35571J0D01*
G01X3613410Y1274480D01*
Y1341910D01*
X3420380D01*
G02X3384810Y1377480I0J35570D01*
G01Y1405410D01*
X3374170D01*
Y1398410D01*
X3268350D01*
X3267850Y1393900D01*
G02X3232500Y1362290I-35350J3961D01*
G01X3105500D01*
G02X3069930Y1397860I0J35570D01*
G01Y1524860D01*
G02X3105500Y1560430I35570J0D01*
G01X3232500D01*
G02X3263340Y1542590I0J-35577D01*
G01X3384810D01*
Y1570520D01*
G02X3420380Y1606090I35570J0D01*
G01X3605770D01*
Y1693080D01*
X3601960Y1694060D01*
G02X3575290Y1728500I8902J34440D01*
G01Y1855500D01*
G02X3578900Y1871100I35567J-13D01*
G01X3579410Y1872160D01*
Y1930080D01*
X3575600Y1931060D01*
G02X3550060Y1956600I8900J34440D01*
G01X3549080Y1960410D01*
X3062720D01*
X3061320Y1957600D01*
G02X3029500Y1937930I-31820J15902D01*
G01X2902500D01*
G02X2871130Y1956730I0J35572D01*
G01X2869700Y1959410D01*
X2717610D01*
X2717040Y1959280D01*
G02Y2096720I-16040J68720D01*
G01X2717610Y2096590D01*
X2788190D01*
Y2105590D01*
X2867080D01*
X2868060Y2109400D01*
G02X2902500Y2136070I34440J-8902D01*
G01X3029500D01*
G02X3063940Y2109400I0J-35572D01*
G01X3064920Y2105590D01*
X3143810D01*
Y2097590D01*
X3549080D01*
X3550060Y2101400D01*
G02X3584500Y2128070I34440J-8902D01*
G01X3711500D01*
G02X3747070Y2092500I0J-35570D01*
G01Y1965500D01*
G02X3743460Y1949900I-35567J13D01*
G37*
G36*
G01X656410Y1116590D02*
X693410Y1079590D01*
X1126000D01*
G02X1145440Y1076780I8J-68591D01*
G01X1146140Y1076570D01*
X1178500D01*
G02X1214070Y1041000I0J-35570D01*
G01Y981000D01*
G02X1178500Y945430I-35570J0D01*
G01X1146140D01*
X1145440Y945220D01*
G02X1126000Y942410I-19432J65781D01*
G01X735070D01*
Y908000D01*
G02X699500Y872430I-35570J0D01*
G01X685140D01*
X684440Y872220D01*
G02X665000Y869410I-19432J65781D01*
G01X647000D01*
G02X627560Y872220I-8J68591D01*
G01X626860Y872430D01*
X594500D01*
G02X558930Y908000I0J35570D01*
G01Y968000D01*
G02X558940Y968970I35571J118D01*
G03X548790Y979410I-10155J281D01*
G01X506120D01*
G02X479500Y967430I-26620J23585D01*
G01X447140D01*
X446440Y967220D01*
G02X427000Y964410I-19432J65781D01*
G01X418000D01*
G02X398560Y967220I-8J68591D01*
G01X397860Y967430D01*
X374500D01*
G02X338930Y1003000I0J35570D01*
G01Y1063000D01*
G02X349410Y1088210I35562J0D01*
G01Y1223000D01*
G02X352220Y1242440I68591J8D01*
G01X352430Y1243140D01*
Y1275500D01*
G02X388000Y1311070I35570J0D01*
G01X448000D01*
G02X483570Y1275500I0J-35570D01*
G01Y1243140D01*
X483780Y1242440D01*
G02X486590Y1223000I-65781J-19432D01*
G01Y1116590D01*
X656410D01*
G37*
G36*
G01X2756600Y1072950D02*
X2776410D01*
Y1184080D01*
X2772600Y1185060D01*
G02X2745930Y1219500I8902J34440D01*
G01Y1346500D01*
G02X2781500Y1382070I35570J0D01*
G01X2908500D01*
G02X2944070Y1346500I0J-35570D01*
G01Y1219500D01*
G02X2917400Y1185060I-35572J0D01*
G01X2913590Y1184080D01*
Y935770D01*
X2757650D01*
X2756930Y931540D01*
G02X2721860Y901930I-35070J5963D01*
G01X2594860D01*
G02X2559290Y937500I0J35570D01*
G01Y1064500D01*
G02X2594860Y1100070I35570J0D01*
G01X2721860D01*
G02X2755400Y1076340I0J-35568D01*
G01X2756600Y1072950D01*
G37*
G36*
G01X1163940Y1301240D02*
G02X1129500Y1274570I-34440J8902D01*
G01X1002500D01*
G02X966930Y1310140I0J35570D01*
G01Y1437140D01*
G02X1002500Y1472710I35570J0D01*
G01X1129500D01*
G02X1163940Y1446040I0J-35572D01*
G01X1164920Y1442230D01*
X1215410D01*
Y1448230D01*
X1392410D01*
Y1531280D01*
G02X1372930Y1563000I16085J31720D01*
G01Y1623000D01*
G02X1408500Y1658570I35570J0D01*
G01X1440860D01*
X1441560Y1658780D01*
G02X1480440I19440J-65780D01*
G01X1481140Y1658570D01*
X1513500D01*
G02X1549070Y1623000I0J-35570D01*
G01Y1563000D01*
G02X1529590Y1531280I-35565J0D01*
G01Y1311050D01*
X1352590D01*
Y1305050D01*
X1164920D01*
X1163940Y1301240D01*
G37*
G36*
G01X563470Y1361410D02*
G02X543000Y1354930I-20470J29092D01*
G01X483000D01*
G02X447430Y1390500I0J35570D01*
G01Y1422860D01*
X447220Y1423560D01*
G02Y1462440I65780J19440D01*
G01X447430Y1463140D01*
Y1495500D01*
G02X483000Y1531070I35570J0D01*
G01X493410D01*
Y1821280D01*
G02X473930Y1853000I16085J31720D01*
G01Y1913000D01*
G02X493410Y1944720I35565J0D01*
G01Y2010410D01*
X457920D01*
X456940Y2006600D01*
G02X422500Y1979930I-34440J8902D01*
G01X295500D01*
G02X259930Y2015500I0J35570D01*
G01Y2142500D01*
G02X295500Y2178070I35570J0D01*
G01X422500D01*
G02X456940Y2151400I0J-35572D01*
G01X457920Y2147590D01*
X630590D01*
Y1944720D01*
G02X650070Y1913000I-16085J-31720D01*
G01Y1853000D01*
G02X630590Y1821280I-35565J0D01*
G01Y1655590D01*
X967080D01*
X968060Y1659400D01*
G02X1002500Y1686070I34440J-8902D01*
G01X1129500D01*
G02X1165070Y1650500I0J-35570D01*
G01Y1523500D01*
G02X1129500Y1487930I-35570J0D01*
G01X1002500D01*
G02X968060Y1514600I0J35572D01*
G01X967080Y1518410D01*
X657310D01*
Y1498590D01*
X835390D01*
X835960Y1498720D01*
G02Y1361280I16040J-68720D01*
G01X835390Y1361410D01*
X563470D01*
G37*
G36*
G01X431400Y1767700D02*
X427590Y1766720D01*
Y1687830D01*
X391590D01*
Y1443000D01*
G02X388780Y1423560I-68591J-8D01*
G01X388570Y1422860D01*
Y1390500D01*
G02X353000Y1354930I-35570J0D01*
G01X293000D01*
G02X257430Y1390500I0J35570D01*
G01Y1422860D01*
X257220Y1423560D01*
G02X254410Y1443000I65781J19432D01*
G01Y1825010D01*
X259930D01*
Y1929140D01*
G02X295500Y1964710I35570J0D01*
G01X422500D01*
G02X458070Y1929140I0J-35570D01*
G01Y1802140D01*
G02X431400Y1767700I-35572J0D01*
G37*
G36*
G01X693930Y1818000D02*
G02X728200Y1853550I35574J0D01*
G02X782000Y1879590I53800J-42557D01*
G01X1127390D01*
X1127960Y1879720D01*
G02Y1742280I16040J-68720D01*
G01X1127390Y1742410D01*
X866470D01*
G02X834500Y1722430I-31970J15588D01*
G01X802140D01*
X801440Y1722220D01*
G02X762560I-19440J65780D01*
G01X761860Y1722430D01*
X729500D01*
G02X693930Y1758000I0J35570D01*
G01Y1818000D01*
G37*
G36*
G01X3560070Y1728500D02*
G02X3524500Y1692930I-35570J0D01*
G01X3397500D01*
G02X3363060Y1719600I0J35572D01*
G01X3362080Y1723410D01*
X3256500D01*
G02X3227860Y1708930I-28640J21084D01*
G01X3100860D01*
G02X3065290Y1744500I0J35570D01*
G01Y1871500D01*
G02X3100860Y1907070I35570J0D01*
G01X3227860D01*
G02X3263430Y1871500I0J-35570D01*
G01Y1860590D01*
X3362080D01*
X3363060Y1864400D01*
G02X3397500Y1891070I34440J-8902D01*
G01X3524500D01*
G02X3560070Y1855500I0J-35570D01*
G01Y1728500D01*
G37*
G36*
G01X673410Y2104410D02*
Y2438080D01*
X669600Y2439060D01*
G02X644060Y2464600I8900J34440D01*
G01X643080Y2468410D01*
X564190D01*
Y2471410D01*
X501460D01*
X500310Y2467920D01*
G02X466520Y2443470I-33790J11124D01*
G01X273480D01*
G02X237910Y2479040I0J35570D01*
G01Y2600960D01*
G02X273480Y2636530I35570J0D01*
G01X466520D01*
G02X500310Y2612080I0J-35574D01*
G01X501460Y2608590D01*
X643670D01*
X644850Y2612020D01*
G02X678500Y2636070I33650J-11516D01*
G01X805500D01*
G02X841070Y2600500I0J-35570D01*
G01Y2473500D01*
G02X814400Y2439060I-35572J0D01*
G01X810590Y2438080D01*
Y2241590D01*
X903390D01*
X903960Y2241720D01*
G02Y2104280I16040J-68720D01*
G01X903390Y2104410D01*
X673410D01*
G37*
G36*
G01X1169410Y2746000D02*
Y2946080D01*
X1165600Y2947060D01*
G02X1138930Y2981500I8902J34440D01*
G01Y3108500D01*
G02X1174500Y3144070I35570J0D01*
G01X1301500D01*
G02X1335940Y3117400I0J-35572D01*
G01X1336920Y3113590D01*
X1436410D01*
Y3520000D01*
G02X1439220Y3539440I68591J8D01*
G01X1439430Y3540140D01*
Y3572500D01*
G02X1475000Y3608070I35570J0D01*
G01X1535000D01*
G02X1570570Y3572500I0J-35570D01*
G01Y3540140D01*
X1570780Y3539440D01*
G02X1573590Y3520000I-65781J-19432D01*
G01Y2976410D01*
X1336920D01*
X1335940Y2972600D01*
G02X1310400Y2947060I-34440J8900D01*
G01X1306590Y2946080D01*
Y2814590D01*
X1640390D01*
X1640960Y2814720D01*
G02Y2677280I16040J-68720D01*
G01X1640390Y2677410D01*
X1299720D01*
G02X1268000Y2657930I-31720J16085D01*
G01X1208000D01*
G02X1172430Y2693500I0J35570D01*
G01Y2725860D01*
X1172220Y2726560D01*
G02X1169410Y2746000I65781J19432D01*
G37*
G36*
G01X669600Y2848300D02*
X673410Y2849280D01*
Y3116590D01*
X830080D01*
X831060Y3120400D01*
G02X865500Y3147070I34440J-8902D01*
G01X992500D01*
G02X1028070Y3111500I0J-35570D01*
G01Y2984500D01*
G02X992500Y2948930I-35570J0D01*
G01X865500D01*
G02X831060Y2975600I0J35572D01*
G01X830080Y2979410D01*
X810590D01*
Y2849280D01*
X814400Y2848300D01*
G02X841070Y2813860I-8902J-34440D01*
G01Y2686860D01*
G02X805500Y2651290I-35570J0D01*
G01X678500D01*
G02X642930Y2686860I0J35570D01*
G01Y2813860D01*
G02X669600Y2848300I35572J0D01*
G37*
G36*
G01X1165600Y3356300D02*
X1169410Y3357280D01*
Y3431080D01*
X1165600Y3432060D01*
G02X1138930Y3466500I8902J34440D01*
G01Y3593500D01*
G02X1174500Y3629070I35570J0D01*
G01X1301500D01*
G02X1337070Y3593500I0J-35570D01*
G01Y3466500D01*
G02X1310400Y3432060I-35572J0D01*
G01X1306590Y3431080D01*
Y3357280D01*
X1310400Y3356300D01*
G02X1337070Y3321860I-8902J-34440D01*
G01Y3194860D01*
G02X1301500Y3159290I-35570J0D01*
G01X1174500D01*
G02X1138930Y3194860I0J35570D01*
G01Y3321860D01*
G02X1165600Y3356300I35572J0D01*
G37*
G36*
G01X856600Y3359300D02*
X860410Y3360280D01*
Y3431080D01*
X856600Y3432060D01*
G02X829930Y3466500I8902J34440D01*
G01Y3593500D01*
G02X865500Y3629070I35570J0D01*
G01X992500D01*
G02X1028070Y3593500I0J-35570D01*
G01Y3466500D01*
G02X1001400Y3432060I-35572J0D01*
G01X997590Y3431080D01*
Y3360280D01*
X1001400Y3359300D01*
G02X1028070Y3324860I-8902J-34440D01*
G01Y3197860D01*
G02X992500Y3162290I-35570J0D01*
G01X865500D01*
G02X829930Y3197860I0J35570D01*
G01Y3324860D01*
G02X856600Y3359300I35572J0D01*
G37*
G36*
G01X1919940Y3240960D02*
G02X1885500Y3214290I-34440J8902D01*
G01X1758500D01*
G02X1722930Y3249860I0J35570D01*
G01Y3376860D01*
G02X1758500Y3412430I35570J0D01*
G01X1885500D01*
G02X1918630Y3389820I0J-35577D01*
G01X1919890Y3386590D01*
X2026080D01*
X2027060Y3390400D01*
G02X2061500Y3417070I34440J-8902D01*
G01X2188500D01*
G02X2224070Y3381500I0J-35570D01*
G01Y3254500D01*
G02X2188500Y3218930I-35570J0D01*
G01X2061500D01*
G02X2027060Y3245600I0J35572D01*
G01X2026080Y3249410D01*
X1999810D01*
Y3244770D01*
X1920920D01*
X1919940Y3240960D01*
G37*
G36*
G01X1756720Y3451410D02*
G02X1725000Y3431930I-31720J16085D01*
G01X1665000D01*
G02X1629430Y3467500I0J35570D01*
G01Y3499860D01*
X1629220Y3500560D01*
G02Y3539440I65780J19440D01*
G01X1629430Y3540140D01*
Y3572500D01*
G02X1665000Y3608070I35570J0D01*
G01X1725000D01*
G02X1756720Y3588590I0J-35565D01*
G01X1818830D01*
G02X1856640Y3599950I37810J-57242D01*
G01X2026080D01*
X2027060Y3603760D01*
G02X2061500Y3630430I34440J-8902D01*
G01X2188500D01*
G02X2224070Y3594860I0J-35570D01*
G01Y3467860D01*
G02X2188500Y3432290I-35570J0D01*
G01X2061500D01*
G02X2027060Y3458960I0J35572D01*
G01X2026080Y3462770D01*
X1883950D01*
G02X1827410Y3451270I-40673J55229D01*
G01X1826830Y3451410D01*
X1756720D01*
G37*
G36*
G01X260760Y2679700D02*
Y2801620D01*
G02X273480Y2814340I12720J0D01*
G01X466520D01*
G02X479240Y2801620I0J-12720D01*
G01Y2679700D01*
G02X466520Y2666980I-12720J0D01*
G01X273480D01*
G02X260760Y2679700I0J12720D01*
G37*
G36*
G01X146880Y3045480D02*
Y3238520D01*
G02X159600Y3251240I12720J0D01*
G01X464400D01*
G02X477120Y3238520I0J-12720D01*
G01Y3045480D01*
G02X464400Y3032760I-12720J0D01*
G01X159600D01*
G02X146880Y3045480I0J12720D01*
G37*
G36*
G01X1267430Y2473500D02*
Y2578500D01*
G02X1303000Y2614070I35570J0D01*
G01X1363000D01*
G02X1398570Y2578500I0J-35570D01*
G01Y2473500D01*
G02X1363000Y2437930I-35570J0D01*
G01X1303000D01*
G02X1267430Y2473500I0J35570D01*
G37*
G36*
G01X1100280D02*
Y2578500D01*
G02X1113000Y2591220I12720J0D01*
G01X1173000D01*
G02X1185720Y2578500I0J-12720D01*
G01Y2473500D01*
G02X1173000Y2460780I-12720J0D01*
G01X1113000D01*
G02X1100280Y2473500I0J12720D01*
G37*
G36*
G01X2040780Y192500D02*
Y319500D01*
G02X2053500Y332220I12720J0D01*
G01X2180500D01*
G02X2193220Y319500I0J-12720D01*
G01Y192500D01*
G02X2180500Y179780I-12720J0D01*
G01X2053500D01*
G02X2040780Y192500I0J12720D01*
G37*
G36*
G01X1491780Y2231500D02*
Y2358500D01*
G02X1504500Y2371220I12720J0D01*
G01X1631500D01*
G02X1644220Y2358500I0J-12720D01*
G01Y2231500D01*
G02X1631500Y2218780I-12720J0D01*
G01X1504500D01*
G02X1491780Y2231500I0J12720D01*
G37*
G36*
G01X2053780Y2759500D02*
Y2886500D01*
G02X2066500Y2899220I12720J0D01*
G01X2193500D01*
G02X2206220Y2886500I0J-12720D01*
G01Y2759500D01*
G02X2193500Y2746780I-12720J0D01*
G01X2066500D01*
G02X2053780Y2759500I0J12720D01*
G37*
G36*
G01X2368780Y937500D02*
Y1064500D01*
G02X2381500Y1077220I12720J0D01*
G01X2508500D01*
G02X2521220Y1064500I0J-12720D01*
G01Y937500D01*
G02X2508500Y924780I-12720J0D01*
G01X2381500D01*
G02X2368780Y937500I0J12720D01*
G37*
G36*
G01X2197280Y2549500D02*
Y2654500D01*
G02X2210000Y2667220I12720J0D01*
G01X2270000D01*
G02X2282720Y2654500I0J-12720D01*
G01Y2549500D01*
G02X2270000Y2536780I-12720J0D01*
G01X2210000D01*
G02X2197280Y2549500I0J12720D01*
G37*
G36*
G01X3509880Y175480D02*
Y368520D01*
G02X3522600Y381240I12720J0D01*
G01X3827400D01*
G02X3840120Y368520I0J-12720D01*
G01Y175480D01*
G02X3827400Y162760I-12720J0D01*
G01X3522600D01*
G02X3509880Y175480I0J12720D01*
G37*
G36*
G01X1427350Y2197140D02*
X1423590Y2196130D01*
Y2180590D01*
X2109410D01*
G02X2179800Y2066330I16590J-68592D01*
G03X2187540Y2049590I7740J-6580D01*
G01X2266410D01*
Y2382020D01*
G02X2269220Y2401450I68592J-2D01*
G01X2269430Y2402150D01*
Y2434500D01*
G02X2305000Y2470070I35570J0D01*
G01X2365000D01*
G02X2396720Y2450590I0J-35565D01*
G01X2753410D01*
Y2653410D01*
X2498590D01*
Y2601980D01*
G02X2495780Y2582550I-68592J2D01*
G01X2495570Y2581850D01*
Y2549500D01*
G02X2460000Y2513930I-35570J0D01*
G01X2400000D01*
G02X2364430Y2549500I0J35570D01*
G01Y2581850D01*
X2364220Y2582550D01*
G02X2361870Y2594070I65785J19419D01*
G01X2361670Y2595820D01*
X2273000Y2684500D01*
Y2862730D01*
X2198200Y2937530D01*
X2195900Y2937370D01*
G02X2193530Y2937290I-2384J35491D01*
G01X2066500D01*
G02X2032060Y2963960I0J35572D01*
G01X2031080Y2967770D01*
X1952190D01*
Y3031410D01*
X1920920D01*
X1919940Y3027600D01*
G02X1885500Y3000930I-34440J8902D01*
G01X1758500D01*
G02X1722930Y3036500I0J35570D01*
G01Y3163500D01*
G02X1758500Y3199070I35570J0D01*
G01X1885500D01*
G02X1919940Y3172400I0J-35572D01*
G01X1920920Y3168590D01*
X2089370D01*
Y3135430D01*
X2193500D01*
G02X2228970Y3102500I0J-35568D01*
G01X2229110Y3100620D01*
X2278070Y3051660D01*
G03X2295410Y3058850I7180J7188D01*
G01Y3524020D01*
G02X2299150Y3546360I68593J0D01*
G01X2299430Y3547160D01*
Y3561500D01*
G02X2335000Y3597070I35570J0D01*
G01X2395000D01*
G02X2430570Y3561500I0J-35570D01*
G01Y3540540D01*
X2430710Y3539950D01*
G02X2432590Y3524000I-66720J-15950D01*
G01Y3520680D01*
X2432660Y3520260D01*
G02Y3497740I-67660J-11260D01*
G01X2432590Y3497320D01*
Y3074260D01*
X2511770Y2995080D01*
Y2796710D01*
X2517890Y2790590D01*
X2822020D01*
G02X2841450Y2787780I-2J-68592D01*
G01X2842150Y2787570D01*
X2874500D01*
G02X2910070Y2752000I0J-35570D01*
G01Y2692000D01*
G02X2890590Y2660280I-35565J0D01*
G01Y2359550D01*
G03X2901140Y2349400I10161J4D01*
G02X2902500Y2349430I1464J-35538D01*
G01X3029500D01*
G02X3063940Y2322760I0J-35572D01*
G01X3064920Y2318950D01*
X3143810D01*
Y2310950D01*
X3549080D01*
X3550060Y2314760D01*
G02X3567410Y2337060I34442J-8898D01*
G01Y2372080D01*
X3563600Y2373060D01*
G02X3536930Y2407500I8902J34440D01*
G01Y2534500D01*
G02X3572500Y2570070I35570J0D01*
G01X3699500D01*
G02X3735070Y2534500I0J-35570D01*
G01Y2407500D01*
G02X3716590Y2376300I-35578J0D01*
G01Y2341280D01*
X3720400Y2340300D01*
G02X3747070Y2305860I-8902J-34440D01*
G01Y2178860D01*
G02X3711500Y2143290I-35570J0D01*
G01X3584500D01*
G02X3550060Y2169960I0J35572D01*
G01X3549080Y2173770D01*
X3062720D01*
X3061320Y2170960D01*
G02X3029500Y2151290I-31820J15902D01*
G01X2902500D01*
G02X2866930Y2186860I0J35570D01*
G01Y2313410D01*
X2403590D01*
Y1912410D01*
X1749590D01*
Y1749720D01*
G02X1769070Y1718000I-16085J-31720D01*
G01Y1658000D01*
G02X1749590Y1626280I-35565J0D01*
G01Y1100590D01*
X1496410Y847410D01*
X1345980D01*
G02X1326550Y850220I2J68592D01*
G01X1325850Y850430D01*
X1293500D01*
G02X1257930Y886000I0J35570D01*
G01Y946000D01*
G02X1293500Y981570I35570J0D01*
G01X1325850D01*
X1326550Y981780D01*
G02X1345980Y984590I19432J-65782D01*
G01X1439590D01*
X1612410Y1157410D01*
Y1626280D01*
G02X1592930Y1658000I16085J31720D01*
G01Y1718000D01*
G02X1612410Y1749720I35565J0D01*
G01Y2043410D01*
X1529590D01*
Y1844720D01*
G02X1549070Y1813000I-16085J-31720D01*
G01Y1753000D01*
G02X1513500Y1717430I-35570J0D01*
G01X1481150D01*
X1480450Y1717220D01*
G02X1441550I-19450J65780D01*
G01X1440850Y1717430D01*
X1408500D01*
G02X1372930Y1753000I0J35570D01*
G01Y1813000D01*
G02X1392410Y1844720I35565J0D01*
G01Y1909410D01*
X781980D01*
G02X762550Y1912220I2J68592D01*
G01X761850Y1912430D01*
X729500D01*
G02X693930Y1948000I0J35570D01*
G01Y2008000D01*
G02X729500Y2043570I35570J0D01*
G01X761850D01*
X762550Y2043780D01*
G02X781980Y2046590I19432J-65782D01*
G01X1286410D01*
Y2196020D01*
X1282560Y2196980D01*
G02X1255570Y2231500I8580J34520D01*
G01Y2358500D01*
G02X1291140Y2394070I35570J0D01*
G01X1418140D01*
G02X1453710Y2358500I0J-35570D01*
G01Y2231500D01*
G02X1427350Y2197140I-35574J0D01*
G37*
G36*
G01X2679750Y1709410D02*
G02X2645000Y1681430I-34750J7589D01*
G01X2515000D01*
G02X2479430Y1717000I0J35570D01*
G01Y1847000D01*
G02X2515000Y1882570I35570J0D01*
G01X2645000D01*
G02X2676600Y1863340I0J-35579D01*
G01X2678020Y1860590D01*
X2851930D01*
Y1871500D01*
G02X2887500Y1907070I35570J0D01*
G01X3014500D01*
G02X3050070Y1871500I0J-35570D01*
G01Y1744500D01*
G02X3014500Y1708930I-35570J0D01*
G01X2887500D01*
G02X2858860Y1723410I0J35564D01*
G01X2759310D01*
Y1713410D01*
X2680620D01*
X2679750Y1709410D01*
G37*
G36*
G01X2680570Y1509870D02*
X2700230D01*
Y1381920D01*
X2704040Y1380940D01*
G02X2730710Y1346500I-8902J-34440D01*
G01Y1219500D01*
G02X2695140Y1183930I-35570J0D01*
G01X2568140D01*
G02X2532570Y1219500I0J35570D01*
G01Y1346500D01*
G02X2534830Y1358970I35569J-7D01*
G03X2525310Y1372690I-9517J3560D01*
G01X2511410D01*
Y1451380D01*
X2507410Y1452250D01*
G02X2479430Y1487000I7589J34750D01*
G01Y1617000D01*
G02X2515000Y1652570I35570J0D01*
G01X2645000D01*
G02X2680570Y1617000I0J-35570D01*
G01Y1509870D01*
G37*
G36*
G01X835120Y307050D02*
G03X825040Y295650I3J-10159D01*
G02X684960I-70040J-8650D01*
G03X674880Y307050I-10083J1241D01*
G01X512920D01*
X511940Y303240D01*
G02X477500Y276570I-34440J8902D01*
G01X350500D01*
G02X314930Y312140I0J35570D01*
G01Y439140D01*
G02X350500Y474710I35570J0D01*
G01X477500D01*
G02X511940Y448040I0J-35572D01*
G01X512920Y444230D01*
X1031080D01*
X1032060Y448040D01*
G02X1066500Y474710I34440J-8902D01*
G01X1193500D01*
G02X1229070Y439140I0J-35570D01*
G01Y312140D01*
G02X1193500Y276570I-35570J0D01*
G01X1066500D01*
G02X1032060Y303240I0J35572D01*
G01X1031080Y307050D01*
X835120D01*
G37*
G36*
G01X1198590Y761650D02*
Y687920D01*
X1202400Y686940D01*
G02X1229070Y652500I-8902J-34440D01*
G01Y525500D01*
G02X1193500Y489930I-35570J0D01*
G01X1066500D01*
G02X1030930Y525500I0J35570D01*
G01Y652500D01*
G02X1054100Y685840I35572J0D01*
G01X1057410Y687070D01*
Y759280D01*
G02X1037930Y791000I16085J31720D01*
G01Y851000D01*
G02X1073500Y886570I35570J0D01*
G01X1105860D01*
X1106560Y886780D01*
G02X1145440I19440J-65780D01*
G01X1146140Y886570D01*
X1178500D01*
G02X1214070Y851000I0J-35570D01*
G01Y791000D01*
G02X1198590Y761650I-35564J0D01*
G37*
G54D23*
X2321000Y508000D03*
%LPD*%
G75*
G54D10*
X414000Y589000D03*
Y375640D03*
X359000Y2079000D03*
Y1865640D03*
X1130000Y589000D03*
Y375640D03*
X1066000Y1373640D03*
Y1587000D03*
X742000Y2537000D03*
Y2750360D03*
X1354640Y2295000D03*
X929000Y3530000D03*
Y3048000D03*
Y3261360D03*
X1238000Y3530000D03*
Y3045000D03*
Y3258360D03*
X929000Y3743360D03*
X1238000D03*
X2117000Y256000D03*
X1568000Y2295000D03*
X2130000Y2823000D03*
X2125000Y3318000D03*
Y3531360D03*
X1822000Y3100000D03*
Y3313360D03*
X2130000Y3036360D03*
X2647000Y296000D03*
X2860360D03*
X2330360Y256000D03*
X2845000Y1283000D03*
X2631640D03*
X2445000Y1001000D03*
X2658360D03*
X3333000Y537000D03*
X3119640D03*
X3116000Y305000D03*
X3329360D03*
X3471000Y1176000D03*
X3684360D03*
X3109000Y786000D03*
X3322360D03*
X3169000Y1248000D03*
Y1461360D03*
X3461000Y1792000D03*
X3674360D03*
X2951000Y1808000D03*
X3164360D03*
X2966000Y2037000D03*
X3648000Y2029000D03*
X3636000Y2471000D03*
X3422640D03*
X2966000Y2250360D03*
X3648000Y2242360D03*
G54D20*
X3285000Y2800000D03*
X3742000D03*
G54D11*
X418000Y1223000D03*
X323000Y1443000D03*
X513000D03*
X1238000Y2746000D03*
X1333000Y2526000D03*
X1143000D03*
X1695000Y3520000D03*
X1505000D03*
X1600000Y3740000D03*
X2335000Y2382000D03*
X2240000Y2602000D03*
X2430000D03*
X2555000Y3509000D03*
X2365000D03*
X2460000Y3729000D03*
G54D21*
X3513000Y3519000D03*
G54D12*
X647000Y938000D03*
X427000Y843000D03*
Y1033000D03*
X562000Y1883000D03*
X1346000Y916000D03*
X1126000Y821000D03*
Y1011000D03*
X782000Y1978000D03*
Y1788000D03*
X1681000Y1688000D03*
X1461000Y1593000D03*
Y1783000D03*
X2822000Y2722000D03*
X3042000Y2817000D03*
Y2627000D03*
G54D22*
G01X427000Y843000D02*
X408000D01*
Y698220D01*
X414000D01*
Y589000D01*
G01Y375640D02*
X755000D01*
G01X665000Y1011000D02*
X628000Y1048000D01*
X418000D01*
G01D02*
Y1223000D01*
G01X427000Y1033000D02*
X418000D01*
Y1048000D01*
G01X359000Y1865640D02*
Y1756420D01*
X323000D01*
Y1443000D01*
G01X562000Y1883000D02*
Y2079000D01*
X359000D01*
G01X562000Y1883000D02*
Y1587000D01*
X1066000D01*
G01X852000Y1430000D02*
X588720D01*
Y1443000D01*
X513000D01*
G01X370000Y2540000D02*
X632780D01*
Y2537000D01*
X742000D01*
G01X370000Y2740660D02*
X196000D01*
G01X370000D02*
Y2819420D01*
G01Y2740660D02*
X484320D01*
G01X312000Y3142000D02*
Y2926000D01*
G01Y3142000D02*
Y3256320D01*
G01X141800Y3142000D02*
X312000D01*
G01D02*
X482200D01*
G01X660000Y3743360D02*
X512040D01*
X510120Y3741440D01*
X312000D01*
G01X1130000Y589000D02*
Y698220D01*
X1126000D01*
Y821000D01*
G01X755000Y375640D02*
X1130000D01*
G01X755000Y287000D02*
Y375640D01*
G01X1066000Y1373640D02*
X1284000D01*
Y1379640D01*
X1461000D01*
Y1593000D01*
G01X1346000Y916000D02*
X1468000D01*
X1681000Y1129000D01*
Y1688000D01*
G01X1126000Y1011000D02*
X665000D01*
G01X647000Y938000D02*
X665000D01*
Y1011000D01*
G01X1144000Y1811000D02*
X782000D01*
Y1788000D01*
G01X1354640Y2295000D02*
X1355000D01*
Y1978000D01*
X782000D01*
G01X929000Y3048000D02*
X742000D01*
Y2750360D01*
G01X920000Y2173000D02*
X742000D01*
Y2537000D01*
G01X1143000Y2350000D02*
Y2526000D01*
G01D02*
Y2596300D01*
G01X1095200Y2526000D02*
X1143000D01*
G01D02*
X1190800D01*
G01X1238000Y3045000D02*
Y2746000D01*
G01D02*
X1657000D01*
G01X929000Y3530000D02*
Y3261360D01*
G01X1238000Y3530000D02*
Y3258360D01*
G01X660000Y3743360D02*
Y3417000D01*
G01X1505000Y3520000D02*
Y3045000D01*
X1238000D01*
G01X660000Y3743360D02*
X929000D01*
G01X1238000D02*
X1524280D01*
Y3740000D01*
X1600000D01*
G01X929000Y3743360D02*
X1238000D01*
G01X2117000Y174700D02*
Y256000D01*
G01D02*
Y337300D01*
G01X2035700Y256000D02*
X2117000D01*
G01X1854000Y1374000D02*
Y1653000D01*
X1919280D01*
Y1667000D01*
X2030000D01*
G01X1461000Y1783000D02*
Y2112000D01*
X2126000D01*
G01X1681000Y1688000D02*
Y1981000D01*
X2335000D01*
Y2382000D01*
G01X2240000Y2602000D02*
X2147000D01*
G01X2130000Y2823000D02*
X2240000D01*
G01X2130000Y2741700D02*
Y2823000D01*
G01X2048700D02*
X2130000D01*
G01X1568000Y2213700D02*
Y2295000D01*
G01D02*
Y2376300D01*
G01Y2295000D02*
X1649300D01*
G01X1695000Y3520000D02*
X1843280D01*
Y3518000D01*
X1856640Y3531360D01*
X2125000D01*
G01X1822000Y3100000D02*
X2020780D01*
Y3036360D01*
X2130000D01*
G01D02*
X2196370D01*
X2341590Y2891140D01*
Y2712910D01*
X2430000Y2624500D01*
Y2602000D01*
G01X2125000Y3318000D02*
X1931220D01*
Y3313360D01*
X1822000D01*
G01X2458000Y3740000D02*
X1600000D01*
G01X2647000Y296000D02*
X2439580D01*
Y256000D01*
X2330360D01*
G01X2860360Y296000D02*
X2877000D01*
Y292640D01*
X2986220D01*
Y305000D01*
X3116000D01*
G01X2580000Y1552000D02*
Y1441280D01*
X2631640D01*
Y1283000D01*
G01X2658360Y1001000D02*
X2632000D01*
Y1004360D01*
X2845000D01*
Y1283000D01*
G01X2445000Y919700D02*
Y1001000D01*
G01D02*
Y1082300D01*
G01X2363700Y1001000D02*
X2445000D01*
G01X2951000Y1808000D02*
X2921000D01*
Y1792000D01*
X2690720D01*
Y1782000D01*
X2580000D01*
G01X2701000Y2028000D02*
X2856780D01*
Y2037000D01*
X2966000D01*
G01X2240000Y2602000D02*
Y2682000D01*
G01Y2531700D02*
Y2602000D01*
G01D02*
X2287800D01*
G01X2822000Y2722000D02*
Y2382000D01*
X2335000D01*
G01X2364000Y3509000D02*
Y3045850D01*
X2443180Y2966670D01*
Y2768300D01*
X2489480Y2722000D01*
X2822000D01*
G01X3285000Y2800000D02*
Y3140430D01*
X2554000D01*
Y3509000D01*
X2555000D01*
G01X2364000Y3524000D02*
Y3509000D01*
G01X2365000D02*
X2364000D01*
G01X3042000Y2817000D02*
Y3027000D01*
X2874000D01*
G01X2460000Y3729000D02*
X2458000D01*
Y3740000D01*
G01D02*
X3177270D01*
Y3519000D01*
X3513000D01*
G01X3675000Y272000D02*
X3474000D01*
G01X3675000Y157680D02*
Y272000D01*
G01D02*
Y386320D01*
G01Y272000D02*
X3845200D01*
G01X3333000Y537000D02*
Y427780D01*
X3329360D01*
Y305000D01*
G01X3119640Y537000D02*
Y676780D01*
X3109000D01*
Y786000D01*
G01X3169000Y1248000D02*
Y1138780D01*
G01X3087700Y1248000D02*
X3169000D01*
G01D02*
X3250300D01*
G01X3675000Y871440D02*
Y1013680D01*
X3684360D01*
Y1176000D01*
G01X3471000D02*
X3322360D01*
Y786000D01*
G01X3169000Y1461360D02*
X3196360D01*
Y1467000D01*
X3305580D01*
Y1474000D01*
X3481340D01*
G01X3648000Y2029000D02*
X3075220D01*
Y2037000D01*
X2966000D01*
G01X3682000Y1474000D02*
Y1616240D01*
X3674360D01*
Y1792000D01*
G01X3648000Y2029000D02*
Y1919780D01*
X3674360D01*
Y1792000D01*
G01X3164360Y1808000D02*
X3134360D01*
Y1792000D01*
X3461000D01*
G01X3742000Y2800000D02*
X3433570D01*
Y2580220D01*
X3422640D01*
Y2471000D01*
G01D02*
X3313420D01*
Y2441000D01*
X3042000D01*
Y2627000D01*
G01X3648000Y2242360D02*
X3075220D01*
Y2250360D01*
X2966000D01*
G01X3636000Y2471000D02*
Y2361780D01*
X3648000D01*
Y2242360D01*
G01X3682000Y1474000D02*
Y1331760D01*
X3684360D01*
Y1176000D01*
G54D13*
X370000Y2540000D03*
Y2740660D03*
G54D14*
X312000Y3142000D03*
Y3741440D03*
X3675000Y272000D03*
Y871440D03*
G54D15*
X755000Y287000D03*
X1144000Y1811000D03*
X852000Y1430000D03*
X920000Y2173000D03*
X660000Y3417000D03*
X1854000Y1374000D03*
X2126000Y2112000D03*
X1657000Y2746000D03*
X2701000Y2028000D03*
X2874000Y3027000D03*
G54D16*
X2030000Y1667000D03*
G54D17*
X2321000Y508000D03*
X3030000Y3492000D03*
G54D18*
X2580000Y1552000D03*
Y1782000D03*
G54D19*
X3682000Y1474000D03*
X3481340D03*
M02*
